<svg width="591" height="609" viewBox="0 0 591 609" fill="none" xmlns="http://www.w3.org/2000/svg">
<path d="M224.018 540.429C192.542 551.098 160.761 556.028 126.861 549.866C89.0767 542.995 56.3036 512.061 37.7857 481.211C30.9053 469.752 25.4277 456.948 26.1435 443.754C27.8089 413.273 57.9081 409.868 83.4577 414.797C97.86 417.57 111.084 423.881 124.159 430.132C145.865 440.516 171.327 445.622 190.788 460.016C197.318 464.86 202.222 470.68 209.81 474.204C221.613 479.69 235.086 482.28 247.21 487.273C257.561 491.557 269.13 498.604 269.146 509.389C269.147 520.45 257.085 527.498 246.487 531.902C238.985 535.039 231.517 537.899 224.018 540.429Z" fill="url(#paint0_linear_1_659)"/>
<path d="M108.159 147.269C159.722 74.572 266.345 45.3828 352.769 72.7153C394.444 85.902 429.37 113.361 461.584 141.865C489.979 166.988 517.527 194.085 536.918 226.382C550.159 248.427 559.636 274.853 566.328 299.523C576.333 336.463 567.247 384.059 517.334 380.572C505.623 379.755 495.492 375.726 484.539 372.201C475.68 369.344 466.998 371.058 457.8 369.662C434.647 366.155 412.344 358 391.253 348.449C348.271 328.965 308.997 302.494 264.793 285.421C228.568 271.447 189.882 264.233 150.823 264.166C134.345 264.141 117.019 265.244 102.279 258.195C65.9483 240.805 82.2858 193.914 95.854 167.537C99.4487 160.51 103.561 153.737 108.159 147.269Z" fill="url(#paint1_linear_1_659)"/>
<path d="M512.445 158.242C520.933 165.597 554.286 185.677 554.928 162.113C555.08 156.243 552.297 150.543 548.509 146.244C544.175 141.309 539.262 138.721 535.878 132.972C531.738 126.03 527.024 119.507 521.799 113.485C511.118 100.951 498.647 89.3699 483.516 84.2101C472.903 80.5953 454.935 81.5043 449.893 94.517C442.549 113.46 473.953 116.931 483.53 123.834C492.619 130.368 497.767 141.596 504.967 150.519C507.242 153.333 509.746 155.918 512.445 158.242Z" fill="url(#paint2_linear_1_659)"/>
<path d="M355.467 135.202C373.448 145.329 386.936 160.489 403.329 172.698C430.623 193.021 468.033 197.179 499.333 211.313C531.248 225.734 555.347 248.144 566.243 280.445C580.319 322.137 581.657 371.718 569.698 414.581C556.527 461.762 525.598 493.102 480.377 514.002C435.181 534.89 385.114 544.638 335.179 546.649C330.36 546.847 325.55 546.954 320.72 546.983C212.24 547.586 67.8458 511.056 30.9128 399.569C30.5743 398.55 30.2499 397.532 29.9245 396.499C26.1188 384.078 23.8812 371.266 23.2594 358.336C20.9364 312.498 29.3221 261.904 46.1201 218.933C57.4183 190.004 81.7471 165.543 107.383 148.114C143.402 123.628 187.349 117.379 231.09 114.441C263.48 112.267 299.909 111.472 330.538 123.325C339.146 126.683 347.479 130.653 355.467 135.202Z" fill="url(#paint3_linear_1_659)"/>
<path d="M431.019 537.093C291.972 575.772 176.1 538.475 135.545 514.991L97.8865 487.363L110.922 466.642L192.033 459.736L326.734 452.829L435.364 473.549L548.339 437.633H556.5C539.119 493.994 466.746 527.424 431.019 537.093Z" fill="#FB4C47"/>
<path d="M419.5 262.131C419.5 262.131 529.5 266.915 556 377.412C577 519.958 478.011 469.545 454.343 462.519C430.681 455.493 346.307 273.04 419.5 262.131Z" fill="#D9423D"/>
<path d="M143.572 484.376H479.565C479.565 484.376 491.329 299.559 448.523 272.515C405.723 245.477 205.556 251.124 161.192 274.219C116.827 297.32 143.572 484.376 143.572 484.376Z" fill="#FB4C47"/>
<path d="M194.961 246.594C194.581 246.594 194.196 246.499 193.846 246.297C192.818 245.722 168.806 231.636 175 195.388C177.166 182.709 179.805 173.571 182.134 165.501C186.326 150.979 189.356 140.484 186.91 119.344C186.781 118.193 187.646 117.16 188.848 117.032C190.045 116.959 191.131 117.735 191.265 118.886C193.805 140.825 190.512 152.208 186.355 166.618C184.055 174.577 181.451 183.608 179.32 196.063C173.605 229.519 195.848 242.567 196.076 242.701C197.115 243.287 197.459 244.572 196.841 245.566C196.438 246.23 195.708 246.594 194.961 246.594Z" fill="#000C3E"/>
<path d="M280.665 23.3412C282.37 37.768 271.523 50.7817 256.443 52.4126C241.363 54.0435 227.76 43.666 226.055 29.2392C224.356 14.8124 235.198 1.7987 250.278 0.167799C265.358 -1.45752 278.961 8.91437 280.665 23.3412Z" fill="#000C3E"/>
<path d="M191.259 236.824C191.259 236.824 201.709 251.396 235.139 252.228C268.562 253.055 292.33 238.098 318.835 243.186C345.334 248.274 379.85 231.669 385.448 220.526C391.053 209.389 371.88 97.7393 349.106 81.8435C326.331 65.9478 220.041 65.2943 201.009 90.4951C181.976 115.696 175 226.29 191.259 236.824Z" fill="#000C3E"/>
<path d="M365.258 121.415C370.869 168.957 335.133 211.852 285.439 217.219C235.744 222.587 190.907 188.399 185.297 140.857C179.686 93.3154 215.422 50.4204 265.116 45.0529C314.811 39.6854 359.648 73.873 365.258 121.415Z" fill="#000C3E"/>
<path d="M323.82 200.658C323.82 200.658 340.161 266.525 335.519 274.78C330.878 283.03 293.199 282.789 283.227 282.337C273.25 281.879 257.965 210.175 263.774 209.332C269.583 208.494 320.358 185.946 323.82 200.658Z" fill="#FFCEB0"/>
<path d="M201.667 138.485C201.667 138.485 221.762 241.93 295.947 235.797C370.139 229.67 346.932 83.1846 318.144 73.0976C289.356 63.005 178.798 81.6486 201.667 138.485Z" fill="#FFCEB0"/>
<path d="M280.625 149.842C280.625 149.842 299.71 179.818 296.435 182.46C293.159 185.102 282.528 186.246 279.311 184.308C276.094 182.365 274.32 147.088 280.625 149.842Z" fill="#EE9B68"/>
<path d="M250.769 74.6782C250.769 74.6782 226.348 90.6745 224.946 114.284C223.545 137.887 235.391 196.102 207.052 197.448C207.052 197.448 134.694 89.3061 250.769 74.6782Z" fill="#000C3E"/>
<path d="M264.735 73.1684C262.604 75.1512 292.145 70.8114 312.141 87.9694C332.131 105.127 343.877 153.524 346.633 154.055C349.394 154.585 350.101 91.477 328.657 75.6482C307.208 59.8195 276.867 61.8861 264.735 73.1684Z" fill="#000C3E"/>
<path d="M268.1 230.129C268.1 230.129 299.142 241.551 326.535 222.729C326.535 222.729 331.596 239.853 329.921 244.21C328.251 248.572 281.692 258.24 269.303 239.736C269.303 239.736 265.292 229.655 268.1 230.129Z" fill="#EE9B68"/>
<path d="M340.957 159.144C340.957 159.144 343.882 132.1 357.613 139.59C371.35 147.08 364.537 175.889 352.803 180.106C341.062 184.329 336.374 173.532 340.957 159.144Z" fill="#FFCEB0"/>
<path d="M224.411 171.735C224.411 171.735 215.257 145.993 203.615 156.225C191.974 166.457 205.326 193.088 217.75 194.696C230.179 196.305 232.228 184.782 224.411 171.735Z" fill="#FFCEB0"/>
<path d="M305.568 131.275C305.568 131.275 316.526 121.679 326.883 128.94C335.985 135.324 318.465 132.688 312.959 135.185C307.46 137.681 299.683 139.133 305.568 131.275Z" fill="#41294A"/>
<path d="M255.018 140.472C255.018 140.472 241.981 133.652 233.737 143.063C226.486 151.341 242.845 144.784 248.812 145.951C254.778 147.124 262.689 146.761 255.018 140.472Z" fill="#41294A"/>
<path d="M253.727 149.767C252.927 149.767 252.127 149.811 251.315 149.895C239.657 151.163 231.238 161.267 232.552 172.415C233.865 183.474 244.333 191.634 256.079 190.361C261.731 189.746 266.792 187.071 270.336 182.82C273.88 178.565 275.48 173.247 274.843 167.846C273.623 157.541 264.551 149.767 253.727 149.767ZM253.668 193.282C241.361 193.282 231.034 184.446 229.656 172.728C228.155 160.049 237.73 148.56 250.983 147.125C264.469 145.622 276.256 154.955 277.739 167.534C278.469 173.677 276.647 179.726 272.619 184.558C268.591 189.394 262.834 192.438 256.412 193.131C255.49 193.231 254.573 193.282 253.668 193.282Z" fill="#FFFCF6"/>
<path d="M312.927 137.937C312.122 137.937 311.322 137.982 310.504 138.065C304.853 138.68 299.791 141.355 296.253 145.605C292.704 149.861 291.11 155.179 291.741 160.58C293.054 171.644 303.522 179.793 315.268 178.525C320.92 177.911 325.981 175.235 329.525 170.985C333.069 166.729 334.669 161.412 334.032 156.011C332.812 145.712 323.745 137.937 312.927 137.937ZM312.846 181.446C300.545 181.446 290.223 172.61 288.845 160.892C288.115 154.749 289.937 148.7 293.965 143.868C297.993 139.032 303.756 135.988 310.172 135.295C323.576 133.804 335.445 143.114 336.928 155.698C337.658 161.842 335.836 167.891 331.808 172.728C327.78 177.559 322.023 180.603 315.601 181.295C314.679 181.396 313.762 181.446 312.846 181.446Z" fill="#FFFCF6"/>
<path d="M231.078 169.277C230.967 169.277 230.862 169.266 230.751 169.238L221.48 167.199C220.698 167.032 220.207 166.278 220.388 165.529C220.569 164.775 221.369 164.289 222.134 164.485L231.405 166.523C232.187 166.691 232.678 167.445 232.497 168.193C232.345 168.841 231.743 169.277 231.078 169.277Z" fill="#FFFCF6"/>
<path d="M333.607 150.732C333.052 150.732 332.521 150.425 332.276 149.916C331.943 149.218 332.27 148.386 333 148.062L344.635 142.98C345.341 142.656 346.229 142.963 346.567 143.672C346.9 144.37 346.579 145.202 345.844 145.521L334.214 150.609C334.015 150.693 333.811 150.732 333.607 150.732Z" fill="#FFFCF6"/>
<path d="M258.821 67.9311C258.821 67.9311 271.035 123.812 288.076 126.582C305.124 129.352 344.829 122.181 345.781 115.736C346.732 109.296 306.017 64.4402 281.164 59.8938C237.576 51.9236 212.017 121.455 219.186 136.284C226.361 151.118 259.779 132.402 267.047 129.313C274.322 126.219 259.066 79.2915 258.821 67.9311Z" fill="#000C3E"/>
<path d="M276.108 167.875C275.443 167.875 274.841 167.44 274.69 166.798C274.509 166.044 274.993 165.295 275.775 165.122L290.412 161.871C291.229 161.67 291.988 162.167 292.163 162.91C292.344 163.664 291.86 164.413 291.071 164.586L276.441 167.836C276.324 167.864 276.219 167.875 276.108 167.875Z" fill="#FFFCF6"/>
<path d="M240.167 54.7783C239.933 54.7783 239.7 54.7448 239.466 54.6666C230.902 51.8907 225.303 47.1153 222.822 40.4576C217.381 25.8409 229.121 7.63848 229.629 6.86771C230.271 5.8847 231.614 5.5831 232.647 6.20865C233.669 6.81745 233.979 8.11323 233.342 9.09066C233.231 9.2638 222.215 26.366 226.949 39.0613C228.958 44.44 233.646 48.3608 240.868 50.7011C242.012 51.0697 242.631 52.2594 242.24 53.3541C241.936 54.2254 241.078 54.7783 240.167 54.7783Z" fill="#000C3E"/>
<path d="M272.231 54.8818C271.718 54.8818 271.198 54.7087 270.784 54.3568C269.879 53.5916 269.791 52.2679 270.591 51.4022C270.731 51.2514 284.532 36.1097 282.045 22.8446C280.983 17.2146 277.036 12.618 270.317 9.17183C269.248 8.62447 268.845 7.35662 269.417 6.34009C269.99 5.30681 271.332 4.94936 272.377 5.47437C280.352 9.5628 285.046 15.1593 286.354 22.1129C289.215 37.3775 274.503 53.4967 273.872 54.1781C273.44 54.6417 272.839 54.8818 272.231 54.8818Z" fill="#000C3E"/>
<path d="M377.408 218.436C376.866 218.436 376.323 218.246 375.902 217.855C375.027 217.062 374.991 215.739 375.826 214.895C376.48 214.231 391.887 198.329 383.755 176.457C380.573 167.895 375.733 158.612 370.613 148.777C361.686 131.624 352.45 113.891 349.508 95.9062C349.315 94.7612 350.133 93.6888 351.329 93.5157C352.526 93.2644 353.647 94.1133 353.828 95.2583C356.665 112.606 365.75 130.043 374.536 146.905C379.715 156.858 384.607 166.253 387.882 175.05C396.937 199.407 379.726 217.046 378.991 217.788C378.564 218.218 377.986 218.436 377.408 218.436Z" fill="#000C3E"/>
<path d="M369.718 122.936C368.539 122.936 367.564 122.037 367.529 120.903C366.858 97.7015 359.373 79.7336 345.28 67.4795C322.587 47.7578 290.15 49.6009 289.841 49.6345C288.498 49.7853 287.593 48.8358 287.511 47.6852C287.424 46.5346 288.34 45.5349 289.549 45.4567C290.944 45.3617 324.157 43.4627 348.228 64.3852C363.238 77.4269 371.201 96.4001 371.908 120.78C371.943 121.936 370.991 122.902 369.783 122.936H369.718Z" fill="#000C3E"/>
<path d="M291.525 216.686C288.979 216.686 287.17 216.261 287.018 216.222C285.844 215.937 285.138 214.809 285.43 213.686C285.722 212.575 286.901 211.899 288.08 212.156C288.139 212.178 294.409 213.602 299.167 210.413C300.171 209.754 301.531 209.983 302.215 210.922C302.909 211.871 302.67 213.178 301.683 213.837C298.262 216.133 294.421 216.686 291.525 216.686Z" fill="#EE9B68"/>
<path d="M218.982 187.881C218.877 187.881 218.772 187.875 218.661 187.859C217.464 187.691 216.641 186.624 216.816 185.479C218.801 172.538 208.082 165.679 207.971 165.618C206.961 164.981 206.681 163.685 207.335 162.714C207.995 161.742 209.349 161.474 210.365 162.105C210.902 162.44 223.536 170.522 221.148 186.094C220.99 187.132 220.056 187.881 218.982 187.881Z" fill="#EE9B68"/>
<path d="M348.299 175.396C347.149 175.396 346.186 174.541 346.115 173.43C345.088 157.702 351.849 148.357 352.135 147.966C352.824 147.034 354.19 146.793 355.182 147.464C356.175 148.128 356.408 149.435 355.719 150.379C355.655 150.463 349.566 158.997 350.482 173.173C350.558 174.329 349.642 175.318 348.433 175.39C348.392 175.396 348.346 175.396 348.299 175.396Z" fill="#EE9B68"/>
<path d="M227.747 278.539C227.747 278.539 277.459 335.397 315.799 320.183C354.132 304.968 390.049 263.727 370.777 258.253C351.505 252.779 197.611 255.661 227.747 278.539Z" fill="#FFCEB0"/>
<path d="M265.17 170.145C265.719 173.608 263.226 176.837 259.607 177.362C255.987 177.881 252.612 175.502 252.064 172.039C251.521 168.576 254.008 165.348 257.627 164.823C261.247 164.303 264.622 166.683 265.17 170.145Z" fill="#41294A"/>
<path d="M327.334 158.709C327.883 162.172 325.39 165.4 321.77 165.925C318.15 166.445 314.776 164.065 314.227 160.602C313.684 157.14 316.171 153.911 319.791 153.386C323.411 152.867 326.785 155.246 327.334 158.709Z" fill="#41294A"/>
<path d="M275.988 209.066C275.643 209.066 275.305 208.988 274.983 208.832C273.915 208.301 273.489 207.044 274.044 206.011C274.359 205.43 281.908 191.634 294.068 190.333C300.975 189.596 307.712 192.975 314.175 200.348C314.952 201.241 314.829 202.559 313.907 203.302C312.984 204.062 311.606 203.928 310.824 203.045C305.354 196.806 299.912 193.908 294.565 194.5C284.739 195.539 278.002 207.804 277.932 207.932C277.546 208.653 276.782 209.066 275.988 209.066Z" fill="#EE9B68"/>
<g filter="url(#filter0_d_1_659)">
<ellipse cx="399.879" cy="423.394" rx="105.44" ry="100.873" fill="white"/>
</g>
<path d="M345.808 378.374C345.808 378.374 389.878 434.667 400.902 439.322C411.929 443.979 425.753 442.931 426.962 448.331C428.171 453.734 403.818 444.595 407.703 452.93C411.588 461.267 426.728 470.783 426.799 479.176C426.873 487.572 402.708 461.155 402.708 461.155C402.708 461.155 425.476 485.324 417.937 485.896C410.395 486.468 390.893 462.837 390.893 462.837C390.893 462.837 412.708 493.836 405.476 491.004C398.248 488.173 331.207 414.006 320.868 406.158C310.53 398.312 345.808 378.374 345.808 378.374Z" fill="#E27B5A"/>
<path d="M474.005 392.038C474.005 392.038 423.74 443.347 412.246 446.814C400.751 450.279 387.133 447.783 385.309 453.022C383.488 458.263 408.742 451.746 403.922 459.624C399.105 467.499 382.965 475.362 381.929 483.699C380.895 492.033 407.945 468.323 407.945 468.323C407.945 468.323 382.538 489.948 389.966 491.309C397.398 492.673 419.496 471.24 419.496 471.24C419.496 471.24 394.251 499.755 401.763 497.702C409.274 495.648 484.426 428.993 495.601 422.282C506.779 415.571 474.005 392.038 474.005 392.038Z" fill="#F8B38A"/>
<path d="M431.214 427.664C431.214 427.664 446.674 455.67 460.886 458.65C475.096 461.63 497.649 440.024 504.347 426.856C511.048 413.69 496.078 374.442 482.639 361.091C472.543 359.912 424.047 402.7 431.214 427.664Z" fill="#F65551"/>
<path d="M332.232 346.257C332.232 346.257 386.135 399.143 383.726 411.591C381.32 424.042 361.904 438.955 346.245 443.84C330.587 448.721 295.019 428.835 295.019 414.494C296.569 387.298 312.591 361.586 332.232 346.257Z" fill="#128E5A"/>
<path d="M151.907 407.508C151.907 407.508 270.768 469.65 292.988 469.395C315.206 469.135 337.565 457.279 343.905 465.442C350.242 473.612 302.087 476.098 315.26 487.233C328.426 498.364 361.422 503.247 368.243 517.267C375.057 531.284 313.433 504.67 313.433 504.67C313.433 504.67 370.927 528.537 358.73 535.005C346.529 541.48 294.949 516.127 294.949 516.127C294.949 516.127 356.293 552.143 341.901 552.681C327.508 553.219 155.833 477.911 132.226 472.313C108.614 466.717 151.907 407.508 151.907 407.508Z" fill="#FFC6A6"/>
<path d="M243.609 403.964C243.609 403.964 245.034 456.734 232.365 476.869C202.244 524.741 120.787 518.905 96.5007 484.561C72.2139 450.217 125.322 276.826 161.192 274.218C197.062 271.61 243.609 353.973 243.609 403.964Z" fill="#D9423D"/>
<path d="M266.835 5.4239C266.162 5.4239 265.432 5.49863 264.641 5.64808C262.712 6.01846 261.462 6.91517 260.712 8.47141C257.367 15.3981 264.42 31.8963 269.46 41.6431C272.574 30.8306 276.306 12.7568 271.032 7.06137C270.017 5.96647 268.635 5.4239 266.835 5.4239ZM270.047 49.7784C269.209 49.7784 268.424 49.3463 268.01 48.6316C266.227 45.5743 250.768 18.4229 256.473 6.60002C257.845 3.75719 260.355 1.9118 263.727 1.26851C269.473 0.173617 272.774 2.20421 274.527 4.09834C283.689 13.9946 273.464 44.7686 272.268 48.2449C271.976 49.0864 271.195 49.6842 270.272 49.7687C270.197 49.7752 270.122 49.7784 270.047 49.7784Z" fill="#FFD310"/>
<path d="M298.307 16.4101C298.086 16.4101 297.862 16.4231 297.638 16.4556C289.749 17.4595 280.216 33.467 275.177 43.594C285.653 39.3736 302.27 31.313 304.478 23.9834C304.973 22.3329 304.641 20.8741 303.435 19.3861C301.812 17.388 300.131 16.4101 298.307 16.4101ZM270.697 49.9197C270.069 49.9197 269.454 49.6793 269.009 49.2309C268.368 48.5876 268.184 47.6454 268.541 46.8267C270.015 43.451 283.32 13.7752 297.02 12.0273C299.645 11.6926 303.527 12.219 307.12 16.644C309.232 19.2432 309.871 22.2095 308.964 25.218C305.194 37.7296 274.932 48.5876 271.495 49.7865C271.234 49.8774 270.966 49.9197 270.697 49.9197Z" fill="#FFD310"/>
<path d="M226.867 42.0305C238.207 49.0049 264.128 54.4295 284.378 42.0305" stroke="#FFD310" stroke-width="4.87"/>
<defs>
<filter id="filter0_d_1_659" x="214.439" y="246.522" width="370.88" height="361.745" filterUnits="userSpaceOnUse" color-interpolation-filters="sRGB">
<feFlood flood-opacity="0" result="BackgroundImageFix"/>
<feColorMatrix in="SourceAlpha" type="matrix" values="0 0 0 0 0 0 0 0 0 0 0 0 0 0 0 0 0 0 127 0" result="hardAlpha"/>
<feOffset dy="4"/>
<feGaussianBlur stdDeviation="40"/>
<feColorMatrix type="matrix" values="0 0 0 0 0 0 0 0 0 0 0 0 0 0 0 0 0 0 0.22 0"/>
<feBlend mode="normal" in2="BackgroundImageFix" result="effect1_dropShadow_1_659"/>
<feBlend mode="normal" in="SourceGraphic" in2="effect1_dropShadow_1_659" result="shape"/>
</filter>
<linearGradient id="paint0_linear_1_659" x1="23.3494" y1="447.961" x2="53.434" y2="557.152" gradientUnits="userSpaceOnUse">
<stop stop-color="#FFCCCC"/>
<stop offset="1" stop-color="#FFEEEE"/>
</linearGradient>
<linearGradient id="paint1_linear_1_659" x1="633.331" y1="157.858" x2="269.525" y2="70.0472" gradientUnits="userSpaceOnUse">
<stop stop-color="white"/>
<stop offset="1" stop-color="#FFCECE"/>
</linearGradient>
<linearGradient id="paint2_linear_1_659" x1="555.794" y1="161.7" x2="432.159" y2="106.502" gradientUnits="userSpaceOnUse">
<stop stop-color="#FFD1D1"/>
<stop offset="1" stop-color="#FFFBFC"/>
</linearGradient>
<linearGradient id="paint3_linear_1_659" x1="527.487" y1="499.612" x2="34.8196" y2="201.393" gradientUnits="userSpaceOnUse">
<stop stop-color="#FFCDCD"/>
<stop offset="1" stop-color="#FFF3F3"/>
</linearGradient>
</defs>
</svg>
